<?xml version="1.0" encoding="UTF-8"?>
<svg width="92px" height="92px" viewBox="0 0 92 92" version="1.1" xmlns="http://www.w3.org/2000/svg" xmlns:xlink="http://www.w3.org/1999/xlink">
    <!-- Generator: Sketch 45.2 (43514) - http://www.bohemiancoding.com/sketch -->
    <title>icon1</title>
    <desc>Created with Sketch.</desc>
    <defs></defs>
    <g id="Page-1" stroke="none" stroke-width="1" fill="none" fill-rule="evenodd">
        <g id="noun_934659_cc">
            <g id="Group" transform="translate(4.000000, 4.000000)">
                <circle id="Combined-Shape" stroke="#686867" stroke-width="3" cx="42" cy="42" r="42"></circle>
                <path d="M41.9958041,25.0000073 C41.4238042,25.022674 40.7626842,25.2609168 40.3457243,25.6577453 L26.7450857,38.6101234 C25.9656458,39.487809 25.6438858,41.1708086 26.5450857,42.1517893 C27.4326856,43.1180368 29.1541255,43.0892987 30.0452454,42.1266941 L39.5957243,33.0195532 L39.5957243,56.5714291 C39.5957243,57.9126479 40.6702842,59 41.9958041,59 C43.321324,59 44.3958839,57.9126479 44.3958839,56.5714291 L44.3958839,33.0195532 L53.9463631,42.1266941 C54.766763,42.9554035 56.5487629,43.1085653 57.4465228,42.1517893 C58.3442027,41.1952562 58.0574027,39.4517852 57.2464428,38.6101234 L43.645884,25.6577453 C43.180444,25.2145311 42.6343641,24.9985502 41.9958041,25.0000073 Z" id="Shape" fill="#686867"></path>
            </g>
        </g>
    </g>
</svg>