<?xml version="1.0" encoding="UTF-8"?>
<svg width="300px" height="42px" viewBox="0 0 300 42" version="1.1" xmlns="http://www.w3.org/2000/svg" xmlns:xlink="http://www.w3.org/1999/xlink">
    <!-- Generator: Sketch 45.2 (43514) - http://www.bohemiancoding.com/sketch -->
    <title>logo_sm</title>
    <desc>Created with Sketch.</desc>
    <defs>
        <linearGradient x1="98.6387915%" y1="1.36120855%" x2="0%" y2="100%" id="linearGradient-1">
            <stop stop-color="#FF3F2C" offset="0%"></stop>
            <stop stop-color="#FF3AB5" offset="100%"></stop>
        </linearGradient>
    </defs>
    <g id="Page-1" stroke="none" stroke-width="1" fill="none" fill-rule="evenodd">
        <g id="logo_sm" transform="translate(0.000000, -15.000000)">
            <path d="M85.3385448,55 L78.6227444,41.7321993 L69.5045439,41.7321993 L69.5045439,55 L64.5905436,55 L64.5905436,16.7799979 L76.6025443,16.7799979 C84.1919447,16.7799979 90.252545,22.3491982 90.252545,29.8839986 C90.252545,33.8697988 87.6863449,38.6199991 83.4275447,40.7493992 L90.7439451,55 L85.3385448,55 Z M69.5045439,21.4209982 L69.5045439,37.091199 L79.6055445,37.091199 C82.4447446,36.599799 85.0655448,33.5421988 85.0655448,30.0477986 C85.0655448,24.9153983 80.4791445,21.4209982 76.6025443,21.4209982 L69.5045439,21.4209982 Z M105.950046,50.3589997 L105.950046,37.9101991 L121.784047,37.9101991 L121.784047,33.2691988 L105.950046,33.2691988 L105.950046,21.4209982 L124.514047,21.4209982 L124.514047,16.7799979 L101.036046,16.7799979 L101.036046,55 L125.060047,55 L125.060047,50.3589997 L105.950046,50.3589997 Z M141.685748,50.3589997 L141.685748,16.7799979 L136.771748,16.7799979 L136.771748,55 L160.795749,55 L160.795749,50.3589997 L141.685748,50.3589997 Z M174.30925,50.3589997 L174.30925,37.9101991 L190.14325,37.9101991 L190.14325,33.2691988 L174.30925,33.2691988 L174.30925,21.4209982 L192.873251,21.4209982 L192.873251,16.7799979 L169.395249,16.7799979 L169.395249,55 L193.419251,55 L193.419251,50.3589997 L174.30925,50.3589997 Z M228.281352,55 L224.568552,44.1345994 L209.280551,44.1345994 L205.567751,55 L200.216951,55 L213.648552,16.7799979 L220.200552,16.7799979 L233.632153,55 L228.281352,55 Z M210.863951,39.4935991 L222.985152,39.4935991 L216.924552,21.7485982 L210.863951,39.4935991 Z M258.611654,23.9325983 L262.979654,21.5847982 C262.979654,21.5847982 260.631854,15.9609979 253.260854,15.9609979 C246.490453,15.9609979 242.231653,20.6565981 242.231653,25.3521984 C242.231653,29.5563986 245.726053,32.4501988 249.220454,34.4157989 L255.663254,38.0193991 C258.393254,39.5481991 261.123254,40.9131992 261.123254,44.7897994 C261.123254,48.8847997 257.192054,50.9049998 253.861454,50.9049998 C249.548054,50.9049998 246.872653,49.2123997 243.869653,44.7351994 L239.501653,47.0829996 C240.648253,49.4307997 244.634053,55.819 252.878654,55.819 C261.614654,55.819 266.255654,50.5773998 266.255654,44.1345994 C266.255654,39.5481991 263.143454,36.599799 258.011054,33.7605988 L251.568254,30.1569986 C249.548054,29.0103986 247.637053,27.4269985 247.637053,25.0245984 C247.637053,22.4583982 249.984854,20.7657981 253.042454,20.7657981 C256.864454,20.7657981 258.611654,23.9325983 258.611654,23.9325983 Z M280.915755,50.3589997 L280.915755,37.9101991 L296.749756,37.9101991 L296.749756,33.2691988 L280.915755,33.2691988 L280.915755,21.4209982 L299.479756,21.4209982 L299.479756,16.7799979 L276.001755,16.7799979 L276.001755,55 L300.025756,55 L300.025756,50.3589997 L280.915755,50.3589997 Z" id="RELEASE" fill="#FFFFFF"></path>
            <polyline id="Line" stroke="url(#linearGradient-1)" stroke-width="6.21075058" stroke-linecap="square" points="5.5 38.5 26 27 46.5 38.5"></polyline>
        </g>
    </g>
</svg>