<?xml version="1.0" encoding="UTF-8"?>
<svg width="204px" height="27px" viewBox="0 0 204 27" version="1.1" xmlns="http://www.w3.org/2000/svg" xmlns:xlink="http://www.w3.org/1999/xlink">
    <!-- Generator: Sketch 45.2 (43514) - http://www.bohemiancoding.com/sketch -->
    <title>logo_dark</title>
    <desc>Created with Sketch.</desc>
    <defs>
        <linearGradient x1="98.6387915%" y1="1.36120855%" x2="0%" y2="100%" id="linearGradient-1">
            <stop stop-color="#FF3F2C" offset="0%"></stop>
            <stop stop-color="#FF3AB5" offset="100%"></stop>
        </linearGradient>
    </defs>
    <g id="Page-1" stroke="none" stroke-width="1" fill="none" fill-rule="evenodd">
        <g id="landing_page-copy-10" transform="translate(-116.000000, -5166.000000)">
            <path d="M181.406076,5192 L177.054238,5183.40247 L171.145645,5183.40247 L171.145645,5192 L167.961373,5192 L167.961373,5167.23344 L175.745149,5167.23344 C180.66308,5167.23344 184.590348,5170.84228 184.590348,5175.72483 C184.590348,5178.30763 182.927451,5181.38576 180.167748,5182.76561 L184.908775,5192 L181.406076,5192 Z M171.145645,5170.24081 L171.145645,5180.3951 L177.691093,5180.3951 C179.530894,5180.07667 181.229172,5178.09535 181.229172,5175.83098 C181.229172,5172.50518 178.257185,5170.24081 175.745149,5170.24081 L171.145645,5170.24081 Z M194.762328,5188.99263 L194.762328,5180.92581 L205.022759,5180.92581 L205.022759,5177.91844 L194.762328,5177.91844 L194.762328,5170.24081 L206.791799,5170.24081 L206.791799,5167.23344 L191.578056,5167.23344 L191.578056,5192 L207.145607,5192 L207.145607,5188.99263 L194.762328,5188.99263 Z M217.91906,5188.99263 L217.91906,5167.23344 L214.734788,5167.23344 L214.734788,5192 L230.302339,5192 L230.302339,5188.99263 L217.91906,5188.99263 Z M239.059087,5188.99263 L239.059087,5180.92581 L249.319518,5180.92581 L249.319518,5177.91844 L239.059087,5177.91844 L239.059087,5170.24081 L251.088558,5170.24081 L251.088558,5167.23344 L235.874815,5167.23344 L235.874815,5192 L251.442366,5192 L251.442366,5188.99263 L239.059087,5188.99263 Z M274.033006,5192 L271.627111,5184.95922 L261.720488,5184.95922 L259.314594,5192 L255.847276,5192 L264.550952,5167.23344 L268.796648,5167.23344 L277.500324,5192 L274.033006,5192 Z M262.746531,5181.95185 L270.601068,5181.95185 L266.6738,5170.45309 L262.746531,5181.95185 Z M293.687039,5171.86833 L296.517503,5170.34695 C296.517503,5170.34695 294.996129,5166.70273 290.219721,5166.70273 C285.832502,5166.70273 283.0728,5169.74548 283.0728,5172.78823 C283.0728,5175.51255 285.337171,5177.38773 287.601542,5178.66144 L291.776476,5180.99657 C293.545516,5181.98723 295.314556,5182.87175 295.314556,5185.38379 C295.314556,5188.03735 292.767138,5189.34644 290.60891,5189.34644 C287.813827,5189.34644 286.080167,5188.24964 284.134224,5185.34841 L281.30376,5186.86978 C282.046757,5188.39116 284.629555,5192.53071 289.972055,5192.53071 C295.632983,5192.53071 298.640351,5189.13416 298.640351,5184.95922 C298.640351,5181.98723 296.623645,5180.07667 293.29785,5178.23687 L289.122916,5175.90174 C287.813827,5175.15874 286.575499,5174.1327 286.575499,5172.57594 C286.575499,5170.91304 288.096873,5169.81624 290.078198,5169.81624 C292.554854,5169.81624 293.687039,5171.86833 293.687039,5171.86833 Z M308.140095,5188.99263 L308.140095,5180.92581 L318.400527,5180.92581 L318.400527,5177.91844 L308.140095,5177.91844 L308.140095,5170.24081 L320.169566,5170.24081 L320.169566,5167.23344 L304.955823,5167.23344 L304.955823,5192 L320.523374,5192 L320.523374,5188.99263 L308.140095,5188.99263 Z" id="RELEASE" fill="#292929"></path>
            <polyline id="Line" stroke="url(#linearGradient-1)" stroke-width="4.02456592" stroke-linecap="square" points="122 5182.0614 135.267799 5174.6904 148.535598 5182.0614"></polyline>
        </g>
    </g>
</svg>